<svg width="167" height="94" viewBox="0 0 167 94" fill="none" xmlns="http://www.w3.org/2000/svg">
<path fill-rule="evenodd" clip-rule="evenodd" d="M62.1197 49.4614C61.1297 48.9914 62.1197 47.7853 62.5897 47.4183C63.5797 46.6853 64.8857 46.4234 66.0857 46.5184L65.9817 48.6663C65.9297 49.7663 65.6687 49.2964 64.8857 49.8714C64.0507 50.4474 62.2257 51.2853 62.1207 49.4513L62.1197 49.4614ZM99.1127 72.2994C100.523 73.1994 103.13 75.8613 100.991 77.1693C98.9557 79.0553 97.8077 75.0744 95.9807 74.5494C96.7637 73.5014 97.7547 72.5063 99.1107 72.2973L99.1127 72.2994ZM73.6527 75.3373C71.9827 75.5993 71.0427 77.1173 69.6357 77.9043C68.3317 78.6903 67.8097 77.6423 67.7057 77.4343C67.4957 77.3293 67.4957 77.5394 67.1837 77.2344C65.9837 75.2964 68.4357 73.8824 69.7407 72.9394C71.5667 72.5194 72.7147 74.0913 73.6537 75.3393L73.6527 75.3373ZM106.993 49.1994C106.889 51.0324 105.063 50.1943 104.228 49.6193C103.445 49.0433 103.185 49.5144 103.132 48.4144L103.028 46.2663C104.228 46.1613 105.532 46.4233 106.524 47.1663C107.046 47.5863 107.984 48.7363 106.994 49.2093L106.993 49.1994Z" fill="#F6D2A2"/>
<path d="M63.1108 50.7702C62.7458 50.7702 62.0678 50.6132 61.9628 49.5652C61.6498 49.3652 61.5458 49.0952 61.5458 48.9352C61.4938 48.3052 62.1718 47.5732 62.5358 47.3112C63.3708 46.6812 64.4658 46.3682 65.6138 46.3682H66.2918V46.5252C66.3438 47.1012 66.2918 47.6772 66.2398 48.2012C66.2398 48.3582 66.2398 48.5152 66.1878 48.6712C66.1358 49.4572 65.9778 49.5712 65.6138 49.7192C65.4568 49.7712 65.3008 49.8242 65.0398 50.0332C64.7798 50.1902 63.8918 50.7662 63.1098 50.7662L63.1108 50.7702ZM65.6148 46.6842C64.5188 46.6842 63.5278 46.9982 62.7448 47.5842C62.3798 47.8462 61.8578 48.4842 61.9098 48.8842C61.9098 49.0412 62.0138 49.1982 62.2228 49.3042L62.3268 49.3562V49.4612C62.3788 50.2992 62.7968 50.4042 63.1098 50.4042C63.6318 50.4042 64.3618 50.0372 64.8318 49.7242C65.1448 49.5242 65.3538 49.4622 65.5098 49.4102C65.7698 49.3052 65.8228 49.3052 65.8748 48.6772C65.8748 48.5202 65.8748 48.3632 65.9268 48.2072C65.9788 47.7372 65.9788 47.2122 65.9788 46.7402C65.8218 46.6882 65.7188 46.6882 65.6138 46.6882L65.6148 46.6842Z" fill="black"/>
<path fill-rule="evenodd" clip-rule="evenodd" d="M62.1172 49.462C62.3772 49.357 62.6912 49.305 62.8472 49.042L62.1172 49.462Z" fill="#C6B198"/>
<path d="M62.1188 49.62C62.0668 49.62 61.9618 49.568 61.9618 49.515C61.9098 49.41 61.9618 49.315 62.0658 49.315C62.1178 49.315 62.1698 49.263 62.1698 49.263C62.3798 49.158 62.5868 49.106 62.6918 48.949C62.7438 48.897 62.8488 48.844 62.9518 48.897C63.0038 48.949 63.0558 49.054 63.0038 49.159C62.8316 49.3712 62.5926 49.5189 62.3258 49.578L62.2218 49.63H62.1178L62.1188 49.62Z" fill="black"/>
<path fill-rule="evenodd" clip-rule="evenodd" d="M66.3961 27.305C59.3001 25.305 64.5701 16.253 70.2561 19.972L66.3961 27.305Z" fill="#6AD7E5"/>
<path d="M66.5004 27.5138L66.3434 27.4618C62.6914 26.4138 62.7434 23.7948 62.8474 23.0098C63.1074 21.0098 64.9874 18.9238 67.4904 18.9238C68.4804 18.9238 69.4204 19.2378 70.3604 19.8668L70.5174 19.9718L66.5004 27.5138ZM67.4904 19.2898C65.1424 19.2898 63.4204 21.2278 63.1604 23.0598C62.9004 24.9458 64.0474 26.4118 66.2904 27.0928L69.9944 20.0228C69.2114 19.5528 68.3774 19.2898 67.4904 19.2898Z" fill="black"/>
<path fill-rule="evenodd" clip-rule="evenodd" d="M97.8594 19.3C103.442 15.37 108.555 24.276 102.033 26.53L97.8594 19.3Z" fill="#6AD7E5"/>
<path d="M101.98 26.7301L97.65 19.2301L97.807 19.1251C98.807 18.4451 99.79 18.0771 100.781 18.0771C103.181 18.0771 104.903 20.0771 105.268 22.0071C105.425 22.7931 105.581 25.4641 102.138 26.6071L101.981 26.7121L101.98 26.7301ZM98.12 19.3971L102.137 26.3641C104.172 25.6311 105.215 24.0591 104.902 22.1641C104.589 20.3841 102.972 18.5501 100.78 18.5501C99.893 18.4981 99.006 18.7501 98.12 19.3881V19.3971ZM99.902 77.8521C99.067 77.8521 98.337 77.0141 97.702 76.2281C97.128 75.5981 96.554 74.9282 95.928 74.7081L95.668 74.6561L95.825 74.4562C96.451 73.5561 97.495 72.4132 99.06 72.1511H99.112L99.164 72.2032C100.051 72.7792 101.981 74.4031 101.929 75.9231C101.929 76.4991 101.616 76.9711 101.042 77.3371C100.677 77.7041 100.312 77.8611 99.894 77.8611L99.902 77.8521ZM96.25 74.4471C96.876 74.7091 97.398 75.3902 97.92 75.9672C98.546 76.7532 99.172 77.4341 99.85 77.4341C100.163 77.4341 100.476 77.2771 100.79 76.9641H100.842C101.312 76.6501 101.572 76.2841 101.572 75.8121C101.572 74.6071 100.059 73.0881 99.015 72.4071C98.075 72.6691 97.137 73.3071 96.25 74.4501V74.4471ZM100.998 77.3272C100.946 77.3272 100.894 77.2752 100.841 77.2221C100.729 77.0058 100.642 76.7778 100.581 76.5421C100.424 76.1222 100.268 75.7041 99.955 75.3901C99.903 75.3382 99.903 75.2331 99.955 75.1281C100.007 75.0761 100.112 75.0761 100.215 75.1281C100.58 75.4951 100.789 75.9661 100.945 76.4282L101.205 77.0581C101.257 77.1631 101.205 77.2581 101.153 77.3201H100.996L100.998 77.3272Z" fill="black"/>
<path d="M68.7455 78.3239C68.0675 78.3239 67.7025 77.7479 67.5975 77.5379H67.5455C67.3885 77.5379 67.2855 77.4859 67.0755 77.2759V77.2239C65.9275 75.3909 67.9105 73.9759 69.2155 73.0239L69.6855 72.7099H69.7895C69.9895 72.6579 70.1545 72.6579 70.3635 72.6579C71.9285 72.6579 72.9205 74.0199 73.7635 75.1199L74.0235 75.4869L73.7105 75.5389C72.7105 75.6959 71.9885 76.3249 71.2585 76.9529C70.7885 77.3729 70.3185 77.7389 69.7985 78.0529C69.3815 78.2099 69.0685 78.3149 68.7555 78.3149L68.7455 78.3239ZM67.5975 77.2239C67.6495 77.2239 67.7015 77.2239 67.7975 77.2759H67.8495L67.9015 77.3279C68.0055 77.4849 68.2665 77.9579 68.7885 77.9579C69.0485 77.9579 69.3105 77.8529 69.5715 77.6959C70.0935 77.4339 70.5715 77.0159 70.9715 76.6479C71.6495 76.0719 72.3715 75.4429 73.3195 75.1809C72.5365 74.1329 71.5975 72.9809 70.2935 72.9809C70.1365 72.9809 69.9805 72.9809 69.8235 73.0329L69.4065 73.3469C68.0495 74.2899 66.3805 75.4949 67.3715 77.0669C67.4235 77.1719 67.4755 77.2239 67.5715 77.2239H67.5975ZM67.7015 77.5909C67.5975 77.5909 67.5015 77.4859 67.5445 77.3909C67.5965 76.8669 67.8575 76.4909 68.1185 76.0909C68.2594 75.893 68.3816 75.6824 68.4835 75.4619C68.5355 75.3569 68.6405 75.3569 68.6835 75.3569C68.7875 75.4089 68.7875 75.5139 68.7875 75.5569C68.6835 75.8189 68.5275 76.0269 68.3705 76.2369C68.1105 76.6039 67.9005 76.9169 67.8485 77.3369C67.8485 77.5369 67.7965 77.5989 67.6915 77.5989L67.7015 77.5909ZM66.7115 24.8429C65.7715 24.3729 65.0945 23.6909 65.6685 22.5909C66.1905 21.5959 67.1815 21.6909 68.1205 22.1709L66.7205 24.8409L66.7115 24.8429ZM100.571 23.8999C101.511 23.4299 102.188 22.7479 101.614 21.6479C101.092 20.6529 100.101 20.7479 99.1625 21.2279L100.562 23.8979L100.571 23.8999ZM106.049 50.4999C105.266 50.4999 104.379 49.9239 104.119 49.7669C103.859 49.6099 103.702 49.5049 103.545 49.4529C103.128 49.2959 103.023 49.1909 102.971 48.4049C102.971 48.2479 102.971 48.0909 102.919 47.9349C102.867 47.4109 102.815 46.8349 102.867 46.2589V46.0989H103.545C104.693 46.0989 105.788 46.4129 106.623 47.0419C106.988 47.3039 107.666 48.0369 107.623 48.6659C107.623 48.8659 107.519 49.1359 107.206 49.2959C107.102 50.3439 106.423 50.5009 106.058 50.5009L106.049 50.4999ZM103.179 46.4669L103.231 47.9339C103.231 48.0909 103.231 48.2479 103.283 48.4039C103.335 49.0339 103.387 49.0339 103.648 49.1369C103.805 49.1889 104.013 49.2939 104.326 49.4509C104.796 49.7649 105.526 50.1309 106.048 50.1309C106.361 50.1309 106.778 50.0259 106.831 49.1879V49.0829L106.935 49.0309C107.135 48.9259 107.248 48.8309 107.248 48.6109C107.3 48.1909 106.778 47.5629 106.413 47.3109C105.63 46.7349 104.587 46.4109 103.543 46.4109C103.439 46.4629 103.343 46.4629 103.178 46.4629L103.179 46.4669Z" fill="black"/>
<path fill-rule="evenodd" clip-rule="evenodd" d="M106.988 49.2003C106.728 49.0953 106.414 49.0433 106.258 48.7803L106.988 49.2003Z" fill="#C6B198"/>
<path d="M106.989 49.4H106.937L106.833 49.348C106.573 49.243 106.311 49.191 106.155 48.928C106.103 48.876 106.103 48.728 106.207 48.666C106.259 48.614 106.417 48.614 106.467 48.718C106.571 48.875 106.78 48.918 106.989 49.032C107.041 49.032 107.093 49.084 107.093 49.084C107.197 49.136 107.25 49.241 107.197 49.284C107.144 49.327 107.04 49.389 106.987 49.389L106.989 49.4Z" fill="black"/>
<path fill-rule="evenodd" clip-rule="evenodd" d="M83.8746 15.5694C90.9706 15.5694 97.5966 16.5644 101.092 23.4264C104.222 31.0744 103.075 39.3504 103.596 47.4694C104.013 54.4364 104.9 62.4494 101.718 68.8934C98.3276 75.6504 89.8746 77.3794 82.9346 77.1174C77.4566 76.9174 70.8826 75.1174 67.7516 70.0974C64.1516 64.2304 65.8216 55.4834 66.0816 48.9354C66.3946 41.1834 63.9946 33.3784 66.5516 25.8354C69.1086 17.9354 76.2036 16.1354 83.8736 15.5684" fill="#6AD7E5"/>
<path d="M84.1361 77.3298H82.8311C80.6911 77.2778 77.4571 76.9098 74.2741 75.5998C71.1961 74.3428 68.9521 72.5618 67.4911 70.2048C64.5691 65.4378 65.0911 58.8908 65.5611 53.0748L65.8211 48.9368C65.9251 46.2128 65.7171 43.3848 65.4561 40.7128C65.0391 35.7888 64.6211 30.7078 66.2391 25.7828C67.4911 22.1158 69.7351 19.4968 73.1261 17.8208C75.7861 16.5208 79.0741 15.7778 83.7691 15.4208C90.7591 15.3688 97.6991 16.3638 101.195 23.3208C103.491 28.9258 103.491 34.9508 103.543 40.7638C103.543 42.9638 103.543 45.2158 103.7 47.4158C103.752 48.0958 103.804 48.7778 103.804 49.4588C104.221 55.8588 104.691 63.0788 101.769 68.9448C100.309 71.9308 97.7521 74.1308 94.2561 75.5448C91.4391 76.6968 87.8911 77.3248 84.1341 77.3248L84.1361 77.3298ZM83.8761 15.7298C76.5191 16.3058 69.3191 17.9298 66.6591 25.8918C65.0421 30.7618 65.4591 35.7918 65.8761 40.6618C66.0861 43.3858 66.3461 46.1618 66.2411 48.9378C66.1891 50.2378 66.0841 51.6078 65.9811 53.0758C65.5111 58.8378 64.9911 65.3328 67.8591 69.9958C69.0591 71.9338 72.9191 76.5438 82.8851 76.9098H84.1891C95.7191 76.9098 99.9991 71.7768 101.563 68.7398C104.433 62.9778 103.963 55.7398 103.598 49.4098C103.546 48.7298 103.494 48.0478 103.494 47.3668C103.39 45.1668 103.337 42.9148 103.337 40.7148C103.285 34.9528 103.285 28.9288 101.041 23.3768C99.4761 20.2768 97.1281 18.1908 93.8931 16.9768C90.5531 15.8768 86.7971 15.7198 83.8761 15.7198V15.7298Z" fill="black"/>
<path fill-rule="evenodd" clip-rule="evenodd" d="M85.1251 25.1051C84.7081 18.2431 95.1951 16.3571 96.7601 23.0621C98.4821 30.5621 86.3771 32.5421 85.1251 25.1051ZM70.6731 26.3001C69.0561 18.3381 81.7861 16.8701 82.2561 24.6241C82.6211 31.1191 72.3431 32.7441 70.6731 26.3001Z" fill="white"/>
<path d="M90.8658 29.9756C88.5178 29.9756 85.5438 28.7186 84.9178 25.1556C84.8138 23.4796 85.3348 21.9606 86.4308 20.8076C87.6308 19.5076 89.4568 18.7646 91.3348 18.7646C93.5348 18.7646 96.1348 19.9166 96.8648 23.1126C97.2818 24.8926 96.9688 26.4646 95.9778 27.7126C94.8818 29.0746 92.9518 29.9646 90.8648 29.9646L90.8658 29.9756ZM85.2828 25.1056C85.5428 26.5726 86.2228 27.7256 87.3178 28.5626C88.2578 29.2956 89.5608 29.6626 90.8658 29.6626C92.7958 29.6626 94.6658 28.8246 95.7178 27.5146C96.6578 26.3626 96.9178 24.8446 96.5528 23.1666C95.8748 20.1806 93.4228 19.1336 91.3358 19.1336C89.5618 19.1336 87.8398 19.8666 86.6928 21.0716C85.6928 22.1196 85.1798 23.5336 85.2928 25.1046L85.2828 25.1056ZM89.8228 24.7916C89.8228 25.8396 89.0398 26.6776 88.1008 26.6776C87.1618 26.6776 86.3788 25.8396 86.3788 24.7916C86.3788 23.7436 87.1618 22.9056 88.1008 22.9056C89.0398 22.9056 89.8228 23.7436 89.8228 24.7916ZM76.1528 30.6046C73.9098 30.6046 71.3008 29.5046 70.4658 26.3616C70.1008 24.5286 70.4658 22.8616 71.5088 21.5946C72.6568 20.1806 74.5348 19.3426 76.5688 19.3426C79.2818 19.3426 82.1518 20.9666 82.3688 24.6426C82.4728 26.1626 82.0038 27.5226 80.9688 28.6226C79.8728 29.8276 78.0468 30.6226 76.1688 30.6226L76.1528 30.6046ZM76.5708 19.6996C74.6408 19.6996 72.8668 20.4856 71.7708 21.7946C70.7708 22.9996 70.4668 24.5186 70.8308 26.2466C71.5608 29.1796 74.0658 30.2266 76.1528 30.2266C77.9268 30.2266 79.6488 29.5466 80.7528 28.3406C81.2206 27.8479 81.5786 27.2616 81.8034 26.6204C82.0282 25.9792 82.1145 25.2976 82.0568 24.6206C81.9528 22.3686 80.4398 19.6966 76.5788 19.6966L76.5708 19.6996ZM75.2668 25.2516C75.2668 26.2996 74.4838 27.1376 73.5448 27.1376C72.6058 27.1376 71.8228 26.2996 71.8228 25.2516C71.8228 24.2036 72.6058 23.3656 73.5448 23.3656C74.4838 23.3656 75.2668 24.2036 75.2668 25.2516Z" fill="black"/>
<path fill-rule="evenodd" clip-rule="evenodd" d="M86.5863 34.0001C86.5863 34.9431 86.7964 36.0431 86.6384 37.1001C86.3784 37.5701 85.9083 37.6241 85.4903 37.7801C84.9163 37.6751 84.4473 37.3101 84.1863 36.7851C84.0293 35.6331 84.2384 34.4801 84.2904 33.3281L86.5863 34.0081V34.0001Z" fill="white"/>
<path d="M85.4927 38.0002C84.8147 37.8952 84.2927 37.4762 84.0327 36.9002C83.9287 36.0622 83.9807 35.2762 84.0327 34.5002C84.0847 34.1332 84.0847 33.7672 84.0847 33.4002V33.2002L86.7447 34.0382V34.1432C86.7447 34.4572 86.7967 34.7732 86.7967 35.1382C86.8487 35.8182 86.9007 36.5522 86.7967 37.2332V37.2852C86.5867 37.7052 86.2227 37.8092 85.8567 37.9652C85.7527 37.9132 85.6467 37.9652 85.4917 38.0172L85.4927 38.0002ZM84.3447 36.7432C84.5547 37.2132 84.9707 37.5292 85.4407 37.6432C85.5447 37.5912 85.6507 37.5912 85.7007 37.5382C86.0137 37.4332 86.2747 37.3382 86.4307 37.0682C86.5347 36.4382 86.4827 35.7682 86.4307 35.0682C86.4307 34.7542 86.3787 34.4382 86.3787 34.1682L84.3957 33.5382C84.3957 33.8522 84.3437 34.1682 84.3437 34.4382C84.2917 35.2762 84.2397 36.0082 84.3437 36.7432H84.3447Z" fill="black"/>
<path fill-rule="evenodd" clip-rule="evenodd" d="M74.7012 25.6795C74.7012 25.9415 74.5012 26.1495 74.2842 26.1495C74.0672 26.1495 73.8672 25.9495 73.8672 25.6795C73.8672 25.4095 74.0672 25.2095 74.2842 25.2095C74.5442 25.2095 74.7012 25.4095 74.7012 25.6795ZM89.3012 25.1995C89.3012 25.4615 89.1442 25.6695 88.8842 25.6695C88.6842 25.6695 88.4672 25.4695 88.4672 25.1995C88.4672 24.9295 88.6242 24.7295 88.8842 24.7295C89.0842 24.7295 89.3012 24.9295 89.3012 25.1995ZM81.5792 33.9045C80.7962 35.7375 81.9962 39.4565 84.0832 36.7345C83.9262 35.5825 84.1352 34.4295 84.1872 33.2775L81.5872 33.9075L81.5792 33.9045Z" fill="white"/>
<path d="M82.6764 37.8857C82.3114 37.8857 81.9464 37.6857 81.6864 37.2557C81.1124 36.4177 81.0084 34.8557 81.4264 33.8507L81.4784 33.7457L84.3484 33.0127V33.2127L84.2964 34.3647C84.2444 35.1507 84.1924 35.8847 84.2964 36.6697V36.7217L84.2444 36.7737C83.7224 37.5067 83.2014 37.8737 82.6794 37.8737L82.6764 37.8857ZM81.7364 34.0617C81.4234 34.9617 81.5264 36.3667 81.9964 37.0477C82.2064 37.3617 82.4134 37.5177 82.6744 37.5177C83.0394 37.5177 83.4574 37.2037 83.8744 36.6797C83.7704 35.8937 83.8224 35.1097 83.9264 34.3747L83.9784 33.4747L81.7354 34.0507L81.7364 34.0617Z" fill="black"/>
<path fill-rule="evenodd" clip-rule="evenodd" d="M81.8422 30.3428C80.4322 30.4478 79.2852 32.1758 80.0162 33.4858C81.0062 35.2658 83.1462 33.3288 84.5032 33.4858C86.0682 33.5378 87.3202 35.1618 88.5732 33.7998C89.9832 32.2798 87.9472 30.8138 86.4332 30.1328L81.8432 30.3328L81.8422 30.3428Z" fill="#F6D2A2"/>
<path d="M87.4766 34.5324C87.0066 34.5324 86.5366 34.3324 86.0666 34.1124C85.5966 33.8924 85.0766 33.6924 84.5016 33.6924H84.3446C83.9276 33.6924 83.4576 33.8494 82.9346 34.0594C82.3606 34.2594 81.7866 34.4264 81.2646 34.4264C80.6386 34.4264 80.1686 34.1644 79.8546 33.5884C79.4896 32.9584 79.5416 32.2264 79.9066 31.5454C80.3236 30.7594 81.0546 30.2884 81.8366 30.1834L86.5326 29.9834C87.6806 30.4534 88.9846 31.3454 89.2456 32.3834C89.3496 32.9074 89.1936 33.4314 88.7756 33.9034C88.3576 34.3754 87.9406 34.5334 87.4716 34.5334L87.4766 34.5324ZM84.5546 33.3804C85.1286 33.3804 85.7026 33.6424 86.2246 33.8504C86.6946 34.0504 87.1116 34.2174 87.5286 34.2174C87.8936 34.2174 88.2066 34.0604 88.5186 33.7474C88.6792 33.5944 88.8009 33.4052 88.8734 33.1955C88.946 32.9859 88.9673 32.762 88.9356 32.5424C88.7256 31.6424 87.4756 30.8124 86.4836 30.3944L81.9436 30.5944C81.2656 30.6464 80.6396 31.1184 80.2736 31.7464C79.9606 32.3224 79.9606 32.9514 80.2216 33.4764C80.4816 33.9464 80.7956 34.1564 81.3176 34.1564C81.7876 34.1564 82.3076 33.9564 82.8306 33.7894C83.4046 33.5894 83.8736 33.4224 84.3956 33.4224C84.3956 33.3174 84.4476 33.3174 84.5526 33.3704L84.5546 33.3804Z" fill="#231F20"/>
<path d="M81.6853 30.2993C81.5813 27.8373 86.2753 27.5233 86.7983 29.5663C87.3723 31.6613 81.8943 32.1333 81.6853 30.2993Z" fill="black"/>
</svg>
