<svg width="166" height="94" viewBox="0 0 166 94" fill="none" xmlns="http://www.w3.org/2000/svg">
<path d="M84 79C101.673 79 116 64.6731 116 47C116 29.3269 101.673 15 84 15C66.3269 15 52 29.3269 52 47C52 64.6731 66.3269 79 84 79Z" fill="#5C2D91"/>
<path opacity="0.1" d="M61.8197 24C57.4707 27.8756 54.2621 32.8647 52.5399 38.4296C50.8177 43.9944 50.6471 49.9239 52.0466 55.5785C53.4462 61.2332 56.3627 66.3985 60.4818 70.5176C64.6008 74.6367 69.7661 77.5534 75.4207 78.953C81.0754 80.3526 87.005 80.1822 92.5699 78.4599C98.1349 76.7377 103.124 73.5291 107 69.18L61.8197 24Z" fill="white"/>
<path d="M59.3984 52.2495C59.2117 52.2525 59.0265 52.2167 58.8544 52.1444C58.6822 52.0721 58.527 51.9649 58.3984 51.8295C58.2663 51.699 58.1619 51.5432 58.0914 51.3713C58.021 51.1995 57.9859 51.0152 57.9884 50.8295C57.9871 50.644 58.0226 50.46 58.093 50.2884C58.1634 50.1167 58.2672 49.9607 58.3984 49.8295C58.5257 49.6919 58.6805 49.5825 58.8528 49.5084C59.025 49.4343 59.2109 49.3973 59.3984 49.3995C59.5856 49.3991 59.7709 49.437 59.9429 49.5109C60.1149 49.5849 60.2699 49.6933 60.3984 49.8295C60.5319 49.9596 60.6378 50.1151 60.71 50.2869C60.7821 50.4587 60.819 50.6432 60.8184 50.8295C60.8201 51.016 60.7838 51.2009 60.7116 51.3729C60.6394 51.5448 60.5328 51.7002 60.3984 51.8295C60.2687 51.9635 60.1133 52.0697 59.9414 52.1419C59.7695 52.2141 59.5848 52.2507 59.3984 52.2495ZM79.2684 51.9995H76.6484L67.2784 37.4595C67.045 37.1013 66.8506 36.7191 66.6984 36.3195H66.6184C66.7075 37.1497 66.7409 37.9849 66.7184 38.8195V51.9995H64.5984V33.7695H67.3684L76.4884 48.0495L77.2284 49.2695H77.2784C77.1729 48.3803 77.1294 47.4848 77.1484 46.5895V33.7695H79.2784V51.9995H79.2684ZM93.6984 51.9995H83.9984V33.7695H93.2384V35.6995H86.1784V41.7595H92.7584V43.6795H86.1784V49.9995H93.6984V51.9995ZM107.998 35.6995H102.698V51.9995H100.568V35.6995H95.3284V33.7695H107.998V35.6995Z" fill="white"/>
<path d="M78.1183 64.4002C77.3963 64.7498 76.6 64.918 75.7983 64.8902C75.2656 64.9142 74.7339 64.824 74.2389 64.6256C73.7439 64.4273 73.297 64.1254 72.9283 63.7402C72.1935 62.9177 71.8064 61.8423 71.8483 60.7402C71.8214 60.1435 71.9146 59.5474 72.1225 58.9874C72.3303 58.4274 72.6486 57.9148 73.0583 57.4802C73.4576 57.0711 73.9376 56.7497 74.4678 56.5362C74.9981 56.3227 75.567 56.2219 76.1383 56.2402C76.822 56.2168 77.5031 56.336 78.1383 56.5902V57.5902C77.5267 57.2516 76.8372 57.0792 76.1383 57.0902C75.6977 57.0778 75.2596 57.1607 74.854 57.3333C74.4484 57.5059 74.0848 57.7641 73.7883 58.0902C73.1646 58.8007 72.8419 59.7259 72.8883 60.6702C72.8416 61.5646 73.1426 62.4425 73.7283 63.1202C74.0092 63.4223 74.3522 63.66 74.7337 63.8171C75.1151 63.9742 75.5261 64.0469 75.9383 64.0302C76.7061 64.0503 77.4644 63.8564 78.1283 63.4702L78.1183 64.4002ZM82.1983 64.9002C81.8002 64.9131 81.404 64.8403 81.0365 64.6867C80.669 64.5332 80.3388 64.3024 80.0683 64.0102C79.5215 63.3999 79.2376 62.5986 79.2783 61.7802C79.2533 61.3514 79.3138 60.922 79.4563 60.5168C79.5988 60.1117 79.8204 59.7389 80.1083 59.4202C80.4021 59.1335 80.7515 58.9101 81.1351 58.7639C81.5187 58.6177 81.9282 58.5518 82.3383 58.5702C82.7259 58.5495 83.1134 58.613 83.4742 58.7563C83.8349 58.8996 84.1604 59.1192 84.4283 59.4002C84.9598 60.0407 85.2279 60.8593 85.1783 61.6902C85.2202 62.5334 84.9294 63.3593 84.3683 63.9902C84.0926 64.2881 83.7563 64.5235 83.382 64.6805C83.0076 64.8375 82.604 64.9124 82.1983 64.9002ZM82.2683 59.4302C81.9932 59.4186 81.7191 59.4692 81.4663 59.5783C81.2135 59.6874 80.9886 59.8521 80.8083 60.0602C80.4235 60.5556 80.2316 61.1739 80.2683 61.8002C80.2333 62.4078 80.4258 63.0067 80.8083 63.4802C80.9904 63.6853 81.2159 63.8474 81.4685 63.9546C81.721 64.0618 81.9942 64.1116 82.2683 64.1002C82.5366 64.116 82.805 64.0702 83.0529 63.9662C83.3008 63.8622 83.5216 63.7028 83.6983 63.5002C84.0618 63.0034 84.2389 62.3944 84.1983 61.7802C84.2378 61.1629 84.061 60.5512 83.6983 60.0502C83.524 59.8434 83.3042 59.6798 83.0561 59.5722C82.808 59.4646 82.5383 59.416 82.2683 59.4302ZM89.8683 59.7302C89.6523 59.5887 89.3958 59.5219 89.1383 59.5402C88.9368 59.5475 88.7403 59.6042 88.5659 59.7054C88.3915 59.8065 88.2447 59.949 88.1383 60.1202C87.8406 60.5914 87.6973 61.1437 87.7283 61.7002V64.7602H86.7283V58.7602H87.7283V60.0002C87.8382 59.6134 88.0569 59.2663 88.3583 59.0002C88.6191 58.7738 88.953 58.6495 89.2983 58.6502C89.4916 58.6415 89.6848 58.6686 89.8683 58.7302V59.7302ZM95.7183 62.0002H91.4983C91.4699 62.5592 91.6518 63.1086 92.0083 63.5402C92.1936 63.7251 92.4159 63.8687 92.6606 63.9618C92.9053 64.0548 93.1669 64.0952 93.4283 64.0802C94.1062 64.0734 94.7618 63.8373 95.2883 63.4102V64.3102C94.67 64.7177 93.9378 64.9174 93.1983 64.8802C92.8251 64.899 92.4524 64.8353 92.1067 64.6935C91.761 64.5518 91.4508 64.3355 91.1983 64.0602C90.6777 63.4108 90.4175 62.5909 90.4683 61.7602C90.4323 60.9274 90.7148 60.1122 91.2583 59.4802C91.5056 59.1945 91.8133 58.9673 92.1592 58.8151C92.5051 58.6629 92.8805 58.5895 93.2583 58.6002C93.5994 58.5811 93.9403 58.6395 94.2556 58.7712C94.5708 58.9028 94.8521 59.1042 95.0783 59.3602C95.5387 59.9673 95.7658 60.7197 95.7183 61.4802L95.7283 62.0002H95.7183ZM94.7183 61.2002C94.7386 60.7368 94.5972 60.2808 94.3183 59.9102C94.1814 59.7556 94.0114 59.6339 93.8209 59.5542C93.6305 59.4746 93.4244 59.439 93.2183 59.4502C93.0031 59.4475 92.7897 59.4897 92.5917 59.5741C92.3937 59.6585 92.2154 59.7831 92.0683 59.9402C91.7391 60.2884 91.5321 60.7341 91.4783 61.2102H94.7183V61.2002Z" fill="#F2F2F2"/>
</svg>
