<svg width="166" height="94" viewBox="0 0 166 94" fill="none" xmlns="http://www.w3.org/2000/svg">
<path d="M83.4687 75.8365C83.1507 75.8365 82.8537 75.7525 82.5787 75.6065L79.7567 73.9496C79.3327 73.7196 79.5447 73.6345 79.6717 73.5925C80.2447 73.4025 80.3517 73.3626 80.9447 73.0266C81.0087 72.9846 81.0947 73.0065 81.1567 73.0466L83.3207 74.3265C83.4057 74.3685 83.5107 74.3685 83.5747 74.3265L92.0407 69.4805C92.1257 69.4385 92.1677 69.3545 92.1677 69.2505V59.5785C92.1677 59.4735 92.1247 59.3885 92.0407 59.3485L83.5747 54.5235C83.4897 54.4815 83.3847 54.4815 83.3207 54.5235L74.8547 59.3485C74.7697 59.3905 74.7277 59.4955 74.7277 59.5785V69.2505C74.7277 69.3345 74.7707 69.4405 74.8547 69.4805L77.1677 70.8025C78.4197 71.4325 79.2047 70.6976 79.2047 69.9626V60.4165C79.2047 60.2905 79.3107 60.1645 79.4597 60.1645H80.5417C80.6687 60.1645 80.7967 60.2695 80.7967 60.4165V69.9626C80.7967 71.6196 79.8847 72.5855 78.2927 72.5855C77.8047 72.5855 77.4227 72.5856 76.3407 72.0606L74.1127 70.8005C73.5607 70.4855 73.2227 69.8986 73.2227 69.2686V59.5965C73.2227 58.9665 73.5627 58.3795 74.1127 58.0645L82.5787 53.2185C83.1087 52.9245 83.8307 52.9245 84.3617 53.2185L92.8277 58.0645C93.3797 58.3795 93.7177 58.9665 93.7177 59.5965V69.2686C93.7177 69.8986 93.3777 70.4855 92.8277 70.8005L84.3617 75.6465C84.0812 75.7713 83.7776 75.8357 83.4707 75.8355L83.4687 75.8365ZM86.0687 69.1866C82.3557 69.1866 81.5917 67.5085 81.5917 66.0815C81.5917 65.9555 81.6977 65.8295 81.8467 65.8295H82.9497C83.0767 65.8295 83.1827 65.9135 83.1827 66.0295C83.3527 67.1415 83.8407 67.6865 86.0897 67.6865C87.8717 67.6865 88.6357 67.2865 88.6357 66.3435C88.6357 65.7985 88.4237 65.3995 85.6437 65.1265C83.3307 64.8965 81.8877 64.3926 81.8877 62.5666C81.8877 60.8666 83.3307 59.8595 85.7497 59.8595C88.4657 59.8595 89.8027 60.7825 89.9727 62.7965C89.9727 62.8595 89.9527 62.9225 89.9087 62.9865C89.8657 63.0285 89.8027 63.0705 89.7387 63.0705H88.6357C88.5297 63.0705 88.4237 62.9865 88.4027 62.8805C88.1477 61.7265 87.4907 61.3485 85.7507 61.3485C83.7987 61.3485 83.5647 62.0185 83.5647 62.5235C83.5647 63.1315 83.8407 63.3205 86.4717 63.6565C89.0717 63.9925 90.3117 64.4745 90.3117 66.2795C90.2917 68.1255 88.7617 69.1745 86.0677 69.1745L86.0687 69.1866Z" fill="#539E43"/>
<path d="M57.1981 38.0081C57.1981 37.6301 56.9861 37.2741 56.6461 37.0851L47.6491 31.9651C47.4991 31.8811 47.3311 31.8391 47.1611 31.8181H47.0761C46.9061 31.8181 46.7361 31.8811 46.5881 31.9651L37.5911 37.0851C37.2511 37.2751 37.0391 37.6301 37.0391 38.0081L37.0591 51.7711C37.0586 51.866 37.084 51.9592 37.1326 52.0406C37.1813 52.122 37.2513 52.1886 37.3351 52.2331C37.5051 52.3381 37.7171 52.3381 37.8651 52.2331L43.2121 49.2131C43.5521 49.0231 43.7641 48.6681 43.7641 48.2901V41.8501C43.7641 41.4721 43.9761 41.1161 44.3161 40.9271L46.5861 39.6271C46.7561 39.5221 46.9461 39.4801 47.1381 39.4801C47.3259 39.4737 47.5112 39.525 47.6691 39.6271L49.9391 40.9271C50.2791 41.1171 50.4911 41.4721 50.4911 41.8501V48.2901C50.4911 48.6681 50.7031 49.0241 51.0431 49.2131L56.3901 52.2331C56.5601 52.3381 56.7721 52.3381 56.9421 52.2331C57.0258 52.1886 57.0958 52.122 57.1445 52.0406C57.1931 51.9592 57.2186 51.866 57.2181 51.7711L57.1981 38.0081ZM100.443 19.0631C100.361 19.0216 100.27 19 100.178 19C100.085 19 99.9944 19.0216 99.9121 19.0631C99.7421 19.1681 99.6361 19.3361 99.6361 19.5231V33.1601C99.6361 33.2861 99.5721 33.4121 99.4461 33.4961C99.3872 33.5271 99.3216 33.5433 99.2551 33.5433C99.1885 33.5433 99.123 33.5271 99.0641 33.4961L96.8141 32.2161C96.4791 32.0261 96.0671 32.0261 95.7321 32.2161L86.7351 37.3561C86.3951 37.5461 86.1831 37.9011 86.1831 38.2791V48.5391C86.1831 48.9171 86.3951 49.2731 86.7351 49.4621L95.7321 54.6021C96.0671 54.7921 96.4791 54.7921 96.8141 54.6021L105.811 49.4621C106.151 49.2721 106.363 48.9171 106.363 48.5391V22.9651C106.363 22.5651 106.151 22.2101 105.811 22.0211L100.443 19.0631ZM99.6161 45.1631C99.6161 45.2681 99.5741 45.3531 99.4891 45.3931L96.4121 47.1551C96.3251 47.1971 96.2221 47.1971 96.1361 47.1551L93.0591 45.3931C92.9741 45.3511 92.9321 45.2461 92.9321 45.1631V41.6381C92.9321 41.5331 92.9741 41.4481 93.0591 41.4081L96.1361 39.6461C96.2231 39.6041 96.3261 39.6041 96.4121 39.6461L99.4891 41.4081C99.5741 41.4501 99.6161 41.5551 99.6161 41.6381V45.1631ZM130.383 41.5531C130.723 41.3631 130.913 41.0081 130.913 40.6301V38.1331C130.911 37.9467 130.861 37.764 130.768 37.6024C130.675 37.4408 130.542 37.3057 130.382 37.2101L121.449 32.0901C121.114 31.9001 120.702 31.9001 120.367 32.0901L111.37 37.2301C111.03 37.4201 110.818 37.7751 110.818 38.1531V48.4131C110.818 48.7911 111.03 49.1471 111.37 49.3361L120.303 54.3711C120.643 54.5611 121.046 54.5611 121.363 54.3711L126.773 51.3911C126.857 51.3466 126.927 51.28 126.975 51.1986C127.024 51.1172 127.05 51.024 127.049 50.9291C127.05 50.8343 127.024 50.7411 126.975 50.6596C126.927 50.5782 126.857 50.5116 126.773 50.4671L117.733 45.3271C117.563 45.2221 117.457 45.0541 117.457 44.8671V41.6671C117.457 41.5723 117.482 41.4791 117.531 41.3976C117.579 41.3162 117.649 41.2496 117.733 41.2051L120.555 39.6101C120.725 39.5051 120.938 39.5051 121.107 39.6101L123.929 41.2051C124.099 41.3101 124.205 41.4781 124.205 41.6671V44.1851C124.205 44.2798 124.23 44.3728 124.279 44.454C124.328 44.5353 124.397 44.6017 124.481 44.6461C124.651 44.7511 124.863 44.7511 125.033 44.6461L130.38 41.5621L130.383 41.5531Z" fill="#333333"/>
<path d="M120.771 41.0706C120.835 41.0286 120.919 41.0286 120.983 41.0706L122.703 42.0566C122.767 42.0986 122.809 42.1616 122.809 42.2466V44.2186C122.809 44.2565 122.8 44.2939 122.781 44.327C122.763 44.3601 122.736 44.3879 122.703 44.4076L120.983 45.3936C120.919 45.4356 120.835 45.4356 120.771 45.3936L119.051 44.4076C119.019 44.3879 118.992 44.3601 118.973 44.327C118.955 44.2939 118.945 44.2565 118.945 44.2186V42.2466C118.945 42.1626 118.987 42.0996 119.051 42.0566L120.771 41.0706Z" fill="#539E43"/>
<path d="M72.2403 32.1327C71.9053 31.9427 71.4933 31.9427 71.1583 32.1327L62.2253 37.2307C61.8853 37.4207 61.6953 37.7757 61.6953 38.1537V48.3717C61.6975 48.5582 61.7475 48.7409 61.8404 48.9025C61.9334 49.0641 62.0663 49.1991 62.2263 49.2947L71.1593 54.3927C71.4943 54.5827 71.9063 54.5827 72.2413 54.3927L81.1743 49.2947C81.5143 49.1047 81.7043 48.7497 81.7043 48.3717V38.1537C81.7021 37.9673 81.6522 37.7846 81.5592 37.623C81.4662 37.4614 81.3334 37.3263 81.1733 37.2307L72.2403 32.1327Z" fill="url(#paint0_linear_5611_1465)"/>
<mask id="mask0_5611_1465" style="mask-type:alpha" maskUnits="userSpaceOnUse" x="61" y="31" width="21" height="24">
<path d="M72.2403 32.1327C71.9053 31.9427 71.4933 31.9427 71.1583 32.1327L62.2253 37.2307C61.8853 37.4207 61.6953 37.7757 61.6953 38.1537V48.3717C61.6975 48.5582 61.7475 48.7409 61.8404 48.9025C61.9334 49.0641 62.0663 49.1991 62.2263 49.2947L71.1593 54.3927C71.4943 54.5827 71.9063 54.5827 72.2413 54.3927L81.1743 49.2947C81.5143 49.1047 81.7043 48.7497 81.7043 48.3717V38.1537C81.7021 37.9673 81.6522 37.7846 81.5592 37.623C81.4662 37.4614 81.3334 37.3263 81.1733 37.2307L72.2403 32.1327Z" fill="white"/>
</mask>
<g mask="url(#mask0_5611_1465)">
<path d="M81.1957 37.2303L72.2107 32.1323C72.1307 32.0783 72.0407 32.0533 71.9447 32.0283L61.8867 49.0633C61.9697 49.1633 62.0707 49.2493 62.1837 49.3153L71.1597 54.4133C71.4147 54.5603 71.7117 54.6033 71.9867 54.5183L81.4307 37.4403C81.3631 37.3596 81.2843 37.2889 81.1967 37.2303H81.1957Z" fill="url(#paint1_linear_5611_1465)"/>
</g>
<mask id="mask1_5611_1465" style="mask-type:alpha" maskUnits="userSpaceOnUse" x="61" y="31" width="21" height="24">
<path d="M72.2403 32.1327C71.9053 31.9427 71.4933 31.9427 71.1583 32.1327L62.2253 37.2307C61.8853 37.4207 61.6953 37.7757 61.6953 38.1537V48.3717C61.6975 48.5582 61.7475 48.7409 61.8404 48.9025C61.9334 49.0641 62.0663 49.1991 62.2263 49.2947L71.1593 54.3927C71.4943 54.5827 71.9063 54.5827 72.2413 54.3927L81.1743 49.2947C81.5143 49.1047 81.7043 48.7497 81.7043 48.3717V38.1537C81.7021 37.9673 81.6522 37.7846 81.5592 37.623C81.4662 37.4614 81.3334 37.3263 81.1733 37.2307L72.2403 32.1327Z" fill="white"/>
</mask>
<g mask="url(#mask1_5611_1465)">
<path fill-rule="evenodd" clip-rule="evenodd" d="M81.2176 49.2942C81.4726 49.1472 81.6636 48.8942 81.7476 48.6242L71.9016 32.0082C71.6466 31.9662 71.3716 31.9882 71.1376 32.1342L62.2266 37.2102L71.8386 54.5402C71.9782 54.5175 72.1139 54.4751 72.2416 54.4142L81.2176 49.2942Z" fill="url(#paint2_linear_5611_1465)"/>
<path d="M81.2164 49.2945L72.2624 54.3925C72.1359 54.4564 71.9997 54.499 71.8594 54.5185L72.0294 54.8335L81.9594 49.1485V49.0225L81.7044 48.6025C81.6624 48.8965 81.4714 49.1475 81.2164 49.2945Z" fill="url(#paint3_linear_5611_1465)"/>
<path d="M81.2164 49.2945L72.2624 54.3925C72.1359 54.4564 71.9997 54.499 71.8594 54.5185L72.0294 54.8335L81.9594 49.1485V49.0225L81.7044 48.6025C81.6624 48.8965 81.4714 49.1475 81.2164 49.2945Z" fill="url(#paint4_linear_5611_1465)"/>
</g>
<defs>
<linearGradient id="paint0_linear_5611_1465" x1="74.5671" y1="35.9327" x2="66.8269" y2="51.5428" gradientUnits="userSpaceOnUse">
<stop stop-color="#41873F"/>
<stop offset="0.3288" stop-color="#418B3D"/>
<stop offset="0.6352" stop-color="#419637"/>
<stop offset="0.9319" stop-color="#3FA92D"/>
<stop offset="1" stop-color="#3FAE2A"/>
</linearGradient>
<linearGradient id="paint1_linear_5611_1465" x1="70.6704" y1="44.4597" x2="89.6715" y2="30.5774" gradientUnits="userSpaceOnUse">
<stop offset="0.1376" stop-color="#41873F"/>
<stop offset="0.4032" stop-color="#54A044"/>
<stop offset="0.7136" stop-color="#66B848"/>
<stop offset="0.9081" stop-color="#6CC04A"/>
</linearGradient>
<linearGradient id="paint2_linear_5611_1465" x1="61.3698" y1="43.264" x2="82.0402" y2="43.264" gradientUnits="userSpaceOnUse">
<stop offset="0.09192" stop-color="#6CC04A"/>
<stop offset="0.2864" stop-color="#66B848"/>
<stop offset="0.5968" stop-color="#54A044"/>
<stop offset="0.8624" stop-color="#41873F"/>
</linearGradient>
<linearGradient id="paint3_linear_5611_1465" x1="61.3694" y1="51.7352" x2="82.0399" y2="51.7352" gradientUnits="userSpaceOnUse">
<stop offset="0.09192" stop-color="#6CC04A"/>
<stop offset="0.2864" stop-color="#66B848"/>
<stop offset="0.5968" stop-color="#54A044"/>
<stop offset="0.8624" stop-color="#41873F"/>
</linearGradient>
<linearGradient id="paint4_linear_5611_1465" x1="85.0513" y1="45.5267" x2="78.6414" y2="58.4558" gradientUnits="userSpaceOnUse">
<stop stop-color="#41873F"/>
<stop offset="0.3288" stop-color="#418B3D"/>
<stop offset="0.6352" stop-color="#419637"/>
<stop offset="0.9319" stop-color="#3FA92D"/>
<stop offset="1" stop-color="#3FAE2A"/>
</linearGradient>
</defs>
</svg>
