<svg width="166" height="94" viewBox="0 0 166 94" fill="none" xmlns="http://www.w3.org/2000/svg">
<mask id="mask0_5611_1485" style="mask-type:alpha" maskUnits="userSpaceOnUse" x="35" y="21" width="96" height="52">
<path d="M35.0898 46.9719C35.0898 60.8199 56.5398 72.0469 83.0138 72.0469C109.488 72.0469 130.948 60.8199 130.948 46.9709C130.948 33.1219 109.488 21.8949 83.0138 21.8949C56.5398 21.8949 35.0898 33.1239 35.0898 46.9719Z" fill="white"/>
</mask>
<g mask="url(#mask0_5611_1485)">
<path d="M35.0898 46.9719C35.0898 60.8199 56.5398 72.0469 83.0138 72.0469C109.488 72.0469 130.948 60.8199 130.948 46.9709C130.948 33.1219 109.488 21.8949 83.0138 21.8949C56.5398 21.8949 35.0898 33.1239 35.0898 46.9719Z" fill="url(#paint0_radial_5611_1485)"/>
</g>
<mask id="mask1_5611_1485" style="mask-type:alpha" maskUnits="userSpaceOnUse" x="33" y="19" width="100" height="56">
<path d="M33.082 19.0413H132.942V74.9033H33.082V19.0413Z" fill="white"/>
</mask>
<g mask="url(#mask1_5611_1485)">
<path d="M83.0131 70.1865C108.451 70.1865 129.073 59.7935 129.073 46.9725C129.073 34.1515 108.453 23.7585 83.0131 23.7585C57.5731 23.7585 36.9531 34.1535 36.9531 46.9735C36.9531 59.7935 57.5751 70.1865 83.0131 70.1865Z" fill="#777BB3"/>
</g>
<mask id="mask2_5611_1485" style="mask-type:alpha" maskUnits="userSpaceOnUse" x="33" y="19" width="100" height="56">
<path d="M33.082 19.0413H132.942V74.9033H33.082V19.0413Z" fill="white"/>
</mask>
<g mask="url(#mask2_5611_1485)">
<path d="M61.1217 49.8503C63.2137 49.8503 64.7747 49.4663 65.7617 48.7103C66.7387 47.9623 67.4147 46.6653 67.7677 44.8563C68.0977 43.1663 67.9717 41.9863 67.3947 41.3483C66.8047 40.6983 65.5267 40.3683 63.5987 40.3683H60.2557L58.4027 49.8513H61.1197L61.1217 49.8503ZM50.1887 61.5303C50.1122 61.5304 50.0365 61.5136 49.9672 61.4811C49.8979 61.4486 49.8366 61.4012 49.7877 61.3423C49.6877 61.2223 49.6477 61.0663 49.6777 60.9143L54.5877 35.7843C54.6113 35.6662 54.6752 35.56 54.7684 35.4838C54.8616 35.4075 54.9783 35.366 55.0987 35.3663H65.6837C69.0107 35.3663 71.4867 36.2643 73.0437 38.0363C74.6087 39.8163 75.0917 42.3063 74.4797 45.4363C74.2458 46.6697 73.816 47.8577 73.2067 48.9553C72.6107 50.0153 71.8227 50.9983 70.8647 51.8753C69.7177 52.9433 68.4197 53.7173 67.0097 54.1723C65.6227 54.6223 63.8397 54.8493 61.7137 54.8493H57.4277L56.2037 61.1113C56.1803 61.2293 56.1167 61.3357 56.0237 61.4121C55.9307 61.4885 55.8141 61.5303 55.6937 61.5303H50.1887Z" fill="black"/>
<path d="M60.6856 40.8829H63.5996C65.9266 40.8829 66.7346 41.3909 66.9996 41.6829C67.4556 42.1849 67.5416 43.2449 67.2496 44.7459C66.9196 46.4259 66.3096 47.6189 65.4366 48.2879C64.5416 48.9729 63.0866 49.3199 61.1126 49.3199H59.0266L60.6766 40.8719L60.6856 40.8829ZM65.6836 34.8489H55.0986C54.8578 34.8486 54.6244 34.9319 54.4382 35.0846C54.252 35.2372 54.1246 35.4497 54.0776 35.6859L49.1676 60.8159C49.1383 60.9656 49.1427 61.12 49.1804 61.2679C49.2181 61.4158 49.2882 61.5534 49.3856 61.6709C49.4834 61.7888 49.6062 61.8837 49.745 61.9487C49.8838 62.0137 50.0353 62.0472 50.1886 62.0469H55.6936C55.9343 62.0471 56.1677 61.9638 56.3539 61.8112C56.5401 61.6585 56.6676 61.446 56.7146 61.2099L57.8566 55.3659H61.7136C63.8936 55.3659 65.7316 55.1289 67.1716 54.6629C68.6516 54.1849 70.0146 53.3629 71.2216 52.2529C72.2186 51.3409 73.0416 50.3159 73.6616 49.2089C74.2816 48.1019 74.7316 46.8649 74.9916 45.5359C75.6356 42.2419 75.1116 39.6059 73.4366 37.6959C71.7766 35.8059 69.1696 34.8489 65.6866 34.8489H65.6836ZM57.7736 50.3659H61.1216C63.3416 50.3659 64.9936 49.9499 66.0816 49.1189C67.1696 48.2879 67.9016 46.8989 68.2816 44.9539C68.6456 43.0859 68.4796 41.7679 67.7836 41.0009C67.0876 40.2339 65.6936 39.8489 63.6016 39.8489H59.8316L57.7766 50.3659H57.7736ZM65.6836 35.8829C68.8676 35.8829 71.1906 36.7129 72.6506 38.3759C74.1106 40.0389 74.5506 42.3579 73.9676 45.3359C73.7276 46.5629 73.3226 47.6859 72.7516 48.7009C72.1806 49.7159 71.4336 50.6479 70.5116 51.5009C69.4116 52.5239 68.1916 53.2529 66.8476 53.6869C65.5036 54.1209 63.7926 54.3389 61.7126 54.3389H56.9976L55.6906 61.0029H50.1856L55.0956 35.8729H65.6806L65.6836 35.8829Z" fill="white"/>
<path d="M87.1003 54.8496C87.0238 54.8497 86.9481 54.8329 86.8788 54.8004C86.8095 54.7679 86.7482 54.7205 86.6993 54.6616C86.5993 54.5416 86.5593 54.3856 86.5893 54.2336L88.7623 43.1136C88.9693 42.0566 88.9183 41.2976 88.6193 40.9766C88.4363 40.7806 87.8863 40.4516 86.2593 40.4516H82.3233L79.5933 54.4296C79.5699 54.5479 79.5061 54.6543 79.4129 54.7307C79.3197 54.8071 79.2028 54.8488 79.0823 54.8486H73.6223C73.5457 54.8487 73.4701 54.8319 73.4008 54.7994C73.3315 54.7669 73.2702 54.7195 73.2213 54.6606C73.1213 54.5406 73.0813 54.3846 73.1113 54.2326L78.0213 29.1026C78.0449 28.9846 78.1088 28.8783 78.202 28.8021C78.2952 28.7259 78.4119 28.6844 78.5323 28.6846H83.9923C84.0689 28.6845 84.1445 28.7013 84.2138 28.7338C84.2831 28.7663 84.3444 28.8137 84.3933 28.8726C84.4933 28.9926 84.5333 29.1486 84.5033 29.3006L83.3183 35.3656H87.5523C90.7783 35.3656 92.9653 35.9316 94.2393 37.0956C95.5393 38.2826 95.9433 40.1806 95.4433 42.7356L93.1583 54.4296C93.1349 54.5479 93.0711 54.6543 92.9779 54.7307C92.8847 54.8071 92.7678 54.8488 92.6473 54.8486H87.1003V54.8496Z" fill="black"/>
<path d="M83.9922 28.1692H78.5322C78.2914 28.1689 78.058 28.2523 77.8718 28.4049C77.6856 28.5575 77.5581 28.7701 77.5112 29.0062L72.6012 54.1362C72.5719 54.2859 72.5763 54.4403 72.614 54.5882C72.6517 54.7361 72.7217 54.8737 72.8192 54.9912C72.917 55.1092 73.0398 55.204 73.1786 55.269C73.3174 55.334 73.4689 55.3676 73.6222 55.3672H79.0802C79.3209 55.3674 79.5543 55.2841 79.7405 55.1315C79.9267 54.9788 80.0542 54.7663 80.1012 54.5302L82.7512 40.9702H86.2582C87.8812 40.9702 88.2222 41.3152 88.2362 41.3302C88.3342 41.4352 88.4642 41.9232 88.2502 43.0162L86.0772 54.1362C86.0479 54.2859 86.0523 54.4403 86.09 54.5882C86.1277 54.7361 86.1978 54.8737 86.2952 54.9912C86.393 55.1092 86.5158 55.204 86.6546 55.269C86.7934 55.334 86.9449 55.3676 87.0982 55.3672H92.6462C92.8869 55.3674 93.1203 55.2841 93.3065 55.1315C93.4927 54.9788 93.6202 54.7663 93.6672 54.5302L95.9522 42.8362C96.4882 40.0912 96.0292 38.0322 94.5892 36.7162C93.2152 35.4612 90.9122 34.8502 87.5492 34.8502H83.9502L85.0152 29.4002C85.0444 29.2504 85.04 29.096 85.0023 28.9482C84.9646 28.8003 84.8946 28.6626 84.7972 28.5452C84.5992 28.3072 84.3052 28.1682 83.9942 28.1682L83.9922 28.1692ZM83.9942 29.2022L82.6882 35.8822H87.5532C90.6132 35.8822 92.7262 36.4122 93.8882 37.4752C95.0502 38.5382 95.3882 40.2582 94.9342 42.6372L92.6472 54.3332H87.1002L89.2732 43.2132C89.5202 41.9482 89.4292 41.0852 89.0002 40.6252C88.5712 40.1652 87.6572 39.9252 86.2602 39.9252H81.8952L79.0802 54.3332H73.6202L78.5302 29.2032H83.9902" fill="white"/>
<path d="M104.084 49.8502C106.176 49.8502 107.737 49.4662 108.724 48.7102C109.701 47.9622 110.377 46.6652 110.731 44.8562C111.061 43.1662 110.935 41.9862 110.357 41.3482C109.767 40.6982 108.489 40.3682 106.561 40.3682H103.22L101.367 49.8512H104.084V49.8502ZM93.1497 61.5312C93.0731 61.5313 92.9975 61.5145 92.9281 61.4821C92.8588 61.4496 92.7975 61.4021 92.7487 61.3432C92.6487 61.2232 92.6086 61.0672 92.6386 60.9152L97.5487 35.7852C97.5723 35.6672 97.6361 35.561 97.7293 35.4847C97.8225 35.4085 97.9393 35.367 98.0597 35.3672H108.645C111.972 35.3672 114.448 36.2652 116.005 38.0372C117.57 39.8172 118.053 42.3072 117.441 45.4372C117.191 46.7122 116.764 47.8972 116.168 48.9572C115.572 50.0172 114.784 51.0002 113.826 51.8772C112.679 52.9452 111.381 53.7192 109.971 54.1742C108.584 54.6242 106.801 54.8512 104.675 54.8512H100.39L99.1666 61.1132C99.1432 61.2315 99.0795 61.3379 98.9863 61.4143C98.8931 61.4908 98.7762 61.5324 98.6556 61.5322H93.1497V61.5312Z" fill="black"/>
<path d="M103.651 40.8829H106.565C108.892 40.8829 109.7 41.3909 109.965 41.6829C110.421 42.1849 110.507 43.2449 110.215 44.7459C109.885 46.4259 109.275 47.6189 108.402 48.2879C107.507 48.9729 106.052 49.3199 104.078 49.3199H101.992L103.642 40.8719L103.651 40.8829ZM108.649 34.8489H98.0634C97.8226 34.8486 97.5893 34.9319 97.4031 35.0846C97.2169 35.2372 97.0894 35.4497 97.0424 35.6859L92.1324 60.8159C92.1031 60.9656 92.1075 61.12 92.1452 61.2679C92.1829 61.4158 92.253 61.5534 92.3504 61.6709C92.4483 61.7888 92.571 61.8837 92.7098 61.9487C92.8486 62.0137 93.0001 62.0472 93.1534 62.0469H98.6584C98.8992 62.0471 99.1326 61.9638 99.3187 61.8112C99.5049 61.6585 99.6324 61.446 99.6794 61.2099L100.821 55.3659H104.678C106.858 55.3659 108.696 55.1289 110.136 54.6629C111.616 54.1849 112.979 53.3629 114.186 52.2529C115.157 51.3744 115.981 50.3469 116.627 49.2089C117.25 48.1009 117.697 46.8649 117.957 45.5359C118.601 42.2419 118.077 39.6039 116.402 37.6959C114.742 35.8059 112.135 34.8489 108.652 34.8489H108.649ZM100.739 50.3659H104.087C106.307 50.3659 107.959 49.9499 109.047 49.1189C110.135 48.2879 110.867 46.8989 111.247 44.9539C111.611 43.0859 111.447 41.7679 110.749 41.0009C110.051 40.2339 108.659 39.8489 106.567 39.8489H102.797L100.742 50.3659H100.739ZM108.649 35.8829C111.833 35.8829 114.156 36.7129 115.616 38.3759C117.076 40.0389 117.516 42.3579 116.933 45.3359C116.693 46.5629 116.288 47.6859 115.717 48.7009C115.146 49.7159 114.399 50.6479 113.477 51.5009C112.377 52.5239 111.157 53.2529 109.813 53.6869C108.469 54.1209 106.758 54.3389 104.678 54.3389H99.9614L98.6564 61.0189H93.1514L98.0614 35.8889H108.646L108.649 35.8829Z" fill="white"/>
</g>
<defs>
<radialGradient id="paint0_radial_5611_1485" cx="0" cy="0" r="1" gradientUnits="userSpaceOnUse" gradientTransform="translate(50.2394 30.7108) scale(62.9376 62.9442)">
<stop stop-color="#AEB2D5"/>
<stop offset="0.3" stop-color="#AEB2D5"/>
<stop offset="0.75" stop-color="#484C89"/>
<stop offset="1" stop-color="#484C89"/>
</radialGradient>
</defs>
</svg>
