<svg width="167" height="94" viewBox="0 0 167 94" fill="none" xmlns="http://www.w3.org/2000/svg">
<path fill-rule="evenodd" clip-rule="evenodd" d="M70.2612 47.18C70.2612 49.158 69.7872 50.8 68.8332 52.105C67.7692 53.583 66.2952 54.345 64.4102 54.385C62.9902 54.429 61.5262 53.985 60.0102 53.082V61.528L57.5742 60.678V41.93C57.9742 41.45 58.4882 41.03 59.1122 40.69C60.5622 39.864 62.3242 39.44 64.3982 39.418L64.4332 39.452C66.3282 39.428 67.7892 40.189 68.8152 41.732C69.7722 43.147 70.2522 44.96 70.2522 47.178L70.2612 47.18ZM67.4502 47.016C67.4502 43.123 66.3152 41.124 64.0442 41.016C63.1402 40.974 62.2582 41.116 61.4002 41.441C60.7152 41.681 60.2542 41.918 60.0002 42.158V51.45C61.4532 52.35 62.7432 52.755 63.8682 52.69C66.2482 52.536 67.4402 50.647 67.4402 47.017L67.4502 47.016ZM85.1402 52.722C85.1402 55.375 84.8682 57.222 84.3242 58.222C83.7802 59.222 82.7382 60.059 81.2042 60.666C79.9592 61.146 78.6042 61.406 77.1682 61.45L76.7652 59.95C78.2352 59.755 79.2682 59.55 79.8682 59.363C81.0482 58.963 81.8682 58.363 82.3042 57.57C82.6612 56.916 82.8372 55.668 82.8372 53.82V53.2C81.1892 53.9356 79.4039 54.3132 77.5992 54.308C76.3992 54.308 75.3412 53.94 74.4292 53.2C73.4052 52.395 72.8942 51.373 72.8942 50.136V40.226L75.3302 39.41V49.388C75.3302 50.454 75.6822 51.275 76.3862 51.85C77.0902 52.425 78.0012 52.702 79.1182 52.68C80.2352 52.658 81.4322 52.234 82.7032 51.408V39.78H85.1392V52.723L85.1402 52.722ZM94.6522 54.254L93.8492 54.288C92.4712 54.288 91.3972 53.968 90.6292 53.324C89.8612 52.68 89.4812 51.792 89.4812 50.658V41.278H87.8112V39.78H89.4812V35.8L91.9152 34.953V39.78H94.6522V41.278H91.9152V50.594C91.9152 51.488 92.1602 52.121 92.6512 52.491C93.0712 52.796 93.7512 52.971 94.6532 53.015V54.255L94.6522 54.254ZM109.404 54.06H106.968V44.867C106.968 43.932 106.744 43.127 106.298 42.454C106.071 42.0937 105.753 41.7991 105.377 41.5992C105 41.3993 104.578 41.301 104.152 41.314C103.035 41.314 101.638 41.89 99.9522 43.041V54.061H97.5162V32.084L99.9522 31.334V41.334C101.52 40.224 103.22 39.67 105.067 39.67C106.367 39.67 107.402 40.095 108.202 40.942C109.002 41.789 109.404 42.844 109.404 44.105V54.049V54.06ZM125.022 46.658C125.022 48.788 124.465 50.558 123.352 51.974C122.129 53.559 120.439 54.354 118.282 54.354C116.144 54.354 114.478 53.559 113.276 51.974C112.176 50.559 111.642 48.787 111.642 46.658C111.642 44.658 112.242 42.973 113.409 41.603C114.665 40.15 116.301 39.42 118.325 39.42C120.349 39.42 121.995 40.15 123.265 41.603C124.443 42.973 125.032 44.657 125.032 46.658H125.022ZM122.364 46.642C122.364 45.146 122.064 43.912 121.494 42.934C120.806 41.734 119.738 41.114 118.292 41.05C115.622 41.2 114.288 43.072 114.288 46.658C114.288 48.302 114.566 49.676 115.125 50.778C115.839 52.183 116.911 52.876 118.34 52.852C121.022 52.832 122.362 50.752 122.362 46.652L122.364 46.642ZM139.002 54.06H136.566V44.346C136.566 43.28 136.238 42.449 135.583 41.85C134.928 41.251 134.053 40.964 132.963 40.987C131.806 41.007 130.705 41.387 129.66 42.095V54.06H127.224V41.8C128.626 40.802 129.917 40.15 131.094 39.846C132.194 39.562 133.186 39.421 134.032 39.421C134.61 39.421 135.154 39.475 135.666 39.585C136.624 39.801 137.402 40.202 138.001 40.791C138.323 41.0908 138.578 41.4545 138.751 41.8589C138.923 42.2633 139.009 42.6994 139.003 43.139V54.059L139.002 54.06Z" fill="#646464"/>
<mask id="mask0_5611_1520" style="mask-type:alpha" maskUnits="userSpaceOnUse" x="18" y="32" width="24" height="23">
<path d="M33.52 32.1719C32.267 32.1779 31.07 32.2719 30.016 32.4639C26.913 32.9999 26.35 34.1219 26.35 36.1899V38.9219H33.683V39.8319H23.597C21.467 39.8319 19.6 41.0839 19.017 43.4659C18.678 44.8399 18.502 45.9519 18.5 47.0829V47.1209C18.502 48.2259 18.67 49.3509 19.016 50.7509C19.536 52.8729 20.782 54.3849 22.913 54.3849H25.433V51.1099C25.433 48.7439 27.527 46.6569 30.013 46.6569H37.337C39.377 46.6569 41.003 45.0169 41.003 43.0139V36.1899C41.003 34.2479 39.327 32.7879 37.337 32.4639C36.1111 32.2681 34.8715 32.1704 33.63 32.1719H33.516H33.52ZM28.178 35.7399C28.178 34.9839 28.794 34.3699 29.554 34.3699C30.314 34.3699 30.93 34.9839 30.93 35.7399C30.9279 36.1029 30.7818 36.4502 30.5238 36.7056C30.2658 36.9609 29.917 37.1035 29.554 37.1019C28.794 37.1019 28.178 36.4919 28.178 35.7399Z" fill="white"/>
</mask>
<g mask="url(#mask0_5611_1520)">
<path fill-rule="evenodd" clip-rule="evenodd" d="M33.52 32.1719C32.267 32.1779 31.07 32.2719 30.016 32.4639C26.913 32.9999 26.35 34.1219 26.35 36.1899V38.9219H33.683V39.8319H23.597C21.467 39.8319 19.6 41.0839 19.017 43.4659C18.678 44.8399 18.502 45.9519 18.5 47.0829V47.1209C18.502 48.2259 18.67 49.3509 19.016 50.7509C19.536 52.8729 20.782 54.3849 22.913 54.3849H25.433V51.1099C25.433 48.7439 27.527 46.6569 30.013 46.6569H37.337C39.377 46.6569 41.003 45.0169 41.003 43.0139V36.1899C41.003 34.2479 39.327 32.7879 37.337 32.4639C36.1111 32.2681 34.8715 32.1704 33.63 32.1719H33.516H33.52ZM28.178 35.7399C28.178 34.9839 28.794 34.3699 29.554 34.3699C30.314 34.3699 30.93 34.9839 30.93 35.7399C30.9279 36.1029 30.7818 36.4502 30.5238 36.7056C30.2658 36.9609 29.917 37.1035 29.554 37.1019C28.794 37.1019 28.178 36.4919 28.178 35.7399Z" fill="url(#paint0_linear_5611_1520)"/>
</g>
<mask id="mask1_5611_1520" style="mask-type:alpha" maskUnits="userSpaceOnUse" x="26" y="39" width="23" height="24">
<path d="M41.9197 39.833V43.017C41.9197 45.485 39.7797 47.562 37.3397 47.562H30.0137C28.0077 47.562 26.3477 49.242 26.3477 51.205V58.031C26.3477 59.973 28.0757 61.116 30.0137 61.673C32.3337 62.34 34.5607 62.461 37.3377 61.673C39.1837 61.151 41.0037 60.099 41.0037 58.031V55.307H33.6817V54.407H44.6717C46.8017 54.407 47.5967 52.954 48.3377 50.773C49.1037 48.528 49.0707 46.368 48.3377 43.488C47.8117 41.393 46.8057 39.833 44.6717 39.833H41.9197ZM36.4247 58.48C36.4268 58.117 36.5729 57.7697 36.8309 57.5143C37.0889 57.2589 37.4377 57.1164 37.8007 57.118C38.5607 57.118 39.1767 57.728 39.1767 58.48C39.1767 59.232 38.5607 59.85 37.8007 59.85C37.0407 59.85 36.4247 59.235 36.4247 58.48Z" fill="white"/>
</mask>
<g mask="url(#mask1_5611_1520)">
<path fill-rule="evenodd" clip-rule="evenodd" d="M41.9197 39.833V43.017C41.9197 45.485 39.7797 47.562 37.3397 47.562H30.0137C28.0077 47.562 26.3477 49.242 26.3477 51.205V58.031C26.3477 59.973 28.0757 61.116 30.0137 61.673C32.3337 62.34 34.5607 62.461 37.3377 61.673C39.1837 61.151 41.0037 60.099 41.0037 58.031V55.307H33.6817V54.407H44.6717C46.8017 54.407 47.5967 52.954 48.3377 50.773C49.1037 48.528 49.0707 46.368 48.3377 43.488C47.8117 41.393 46.8057 39.833 44.6717 39.833H41.9197ZM36.4247 58.48C36.4268 58.117 36.5729 57.7697 36.8309 57.5143C37.0889 57.2589 37.4377 57.1164 37.8007 57.118C38.5607 57.118 39.1767 57.728 39.1767 58.48C39.1767 59.232 38.5607 59.85 37.8007 59.85C37.0407 59.85 36.4247 59.235 36.4247 58.48Z" fill="url(#paint1_linear_5611_1520)"/>
</g>
<mask id="mask2_5611_1520" style="mask-type:alpha" maskUnits="userSpaceOnUse" x="142" y="34" width="7" height="4">
<path d="M142.73 34.7236H148.348V37.6536H142.73V34.7236Z" fill="white"/>
</mask>
<g mask="url(#mask2_5611_1520)">
<path fill-rule="evenodd" clip-rule="evenodd" d="M145.56 37.6546H145.925V35.2626L146.718 37.6546H147.124L147.948 35.2706V37.6546H148.346V34.7236H147.819L146.918 37.2346L146.148 34.7236H145.558V37.6536L145.56 37.6546ZM143.742 37.6546H144.169V35.0366H145.181V34.7236H142.73V35.0366H143.742V37.6566V37.6546Z" fill="#646464"/>
</g>
<defs>
<linearGradient id="paint0_linear_5611_1520" x1="17.7545" y1="33.2896" x2="34.3437" y2="47.3777" gradientUnits="userSpaceOnUse">
<stop stop-color="#599ED4"/>
<stop offset="1" stop-color="#2F6997"/>
</linearGradient>
<linearGradient id="paint1_linear_5611_1520" x1="41.0083" y1="55.8182" x2="35.0774" y2="47.5357" gradientUnits="userSpaceOnUse">
<stop stop-color="#FFD43B"/>
<stop offset="1" stop-color="#FFE872"/>
</linearGradient>
</defs>
</svg>
