<svg width="167" height="94" viewBox="0 0 167 94" fill="none" xmlns="http://www.w3.org/2000/svg">
<path d="M75.575 60.637C75.575 60.637 80.425 60.217 80.425 53.903C80.425 47.589 74.549 47 74.549 47H63.965V66.923H69.285V62.117L73.885 66.923H81.755L75.575 60.636V60.637ZM73.525 56.557H69.285V52.002H73.552C73.552 52.002 74.752 52.449 74.752 54.265C74.752 56.081 73.532 56.565 73.532 56.565L73.525 56.557ZM93.559 47.14H88.156C84.306 47.14 83.002 50.66 83.002 52.337V66.923H88.405V63.43H93.475V66.923H98.712V52.338C98.712 48.091 94.888 47.141 93.558 47.141L93.559 47.14ZM93.476 57.786H88.378V52.952C88.378 52.952 88.378 51.852 90.078 51.852H91.934C93.43 51.852 93.458 52.952 93.458 52.952V57.786H93.486H93.476ZM101.179 47.14H106.804V66.924H101.179V47.14ZM114.699 61.8V47.14H109.102V66.924H122.262V61.8H114.699ZM124.119 61.856V66.914H133.179C135.035 66.914 138.222 65.544 138.333 61.717V59.77C138.333 56.5 135.673 54.573 133.179 54.573H128.663V52.226H137.613V47.14H129.013C126.796 47.14 123.833 48.984 123.833 52.42V54.18C123.833 57.617 126.77 59.377 129.013 59.377C135.247 59.405 127.517 59.377 133.28 59.377V61.837L124.11 61.865L124.119 61.856ZM30.439 66.886H52.339C52.339 66.886 48.155 47.633 62.009 39.836C65.029 38.356 74.644 32.822 90.382 44.558C90.882 44.138 91.352 43.804 91.352 43.804C91.352 43.804 76.952 29.302 60.909 30.924C52.846 31.651 42.927 39.054 37.109 48.824C31.291 58.594 30.459 66.874 30.459 66.874L30.439 66.886ZM76.046 32.5L76.146 30.628C75.896 30.488 75.204 30.153 73.458 29.65L73.358 31.494C74.2646 31.8002 75.1611 32.1357 76.046 32.5ZM73.414 38.424L73.314 40.184C74.228 40.212 75.144 40.324 76.057 40.519L76.157 38.787C75.215 38.591 74.301 38.48 73.414 38.424ZM63.162 29.706H63.439L62.884 28C62.024 28 61.138 28.056 60.224 28.168L60.75 29.818C61.5508 29.7388 62.3553 29.7014 63.16 29.706H63.162ZM64.492 39.989L65.129 41.917C65.933 41.517 66.736 41.19 67.529 40.939L66.929 39.095C66.0979 39.3402 65.2836 39.6388 64.491 39.989H64.492ZM51.912 32.639L50.665 30.699C49.9335 31.0793 49.2129 31.4801 48.504 31.901L49.779 33.857C50.499 33.41 51.192 32.991 51.913 32.627L51.912 32.639ZM57.592 45.213L58.922 47.225C59.392 46.525 59.947 45.885 60.557 45.241L59.31 43.341C58.6868 43.9166 58.1122 44.5428 57.592 45.213ZM53.575 54.2L55.819 56C55.9309 54.897 56.1255 53.8039 56.401 52.73L54.406 51.137C54.046 52.171 53.806 53.205 53.576 54.211L53.575 54.2ZM41.439 40.938L39.472 39.206C38.752 39.906 38.059 40.603 37.422 41.302L39.556 43.146C40.138 42.392 40.776 41.646 41.44 40.939L41.439 40.938ZM33.071 53.438L29.885 52.264C29.359 53.466 28.777 54.864 28.5 55.617L31.686 56.791C32.046 55.841 32.628 54.471 33.071 53.438ZM53.159 61.318C53.1971 62.4971 53.3079 63.6726 53.491 64.838L56.816 66.04C56.566 64.94 56.316 63.72 56.151 62.407L53.159 61.307V61.318Z" fill="#CC0000"/>
</svg>
